<?xml version="1.0" encoding="UTF-8"?><svg xmlns="http://www.w3.org/2000/svg" xmlns:xlink="http://www.w3.org/1999/xlink" width="30" zoomAndPan="magnify" viewBox="0 0 30 30.000001" height="30.000001" preserveAspectRatio="xMidYMid meet" version="1.0"><defs><clipPath id="clip-0"><path d="M 0.484375 0 L 29.515625 0 L 29.515625 29.03125 L 0.484375 29.03125 Z M 0.484375 0 " clip-rule="nonzero"/></clipPath><clipPath id="clip-1"><path d="M 7.066406 6.640625 L 22.308594 6.640625 L 22.308594 21.15625 L 7.066406 21.15625 Z M 7.066406 6.640625 " clip-rule="nonzero"/></clipPath></defs><g clip-path="url(#clip-0)"><path fill="rgb(100%, 100%, 100%)" d="M 0.484375 0 L 29.515625 0 L 29.515625 36.289062 L 0.484375 36.289062 Z M 0.484375 0 " fill-opacity="1" fill-rule="nonzero"/><path fill="rgb(100%, 100%, 100%)" d="M 0.484375 0 L 29.515625 0 L 29.515625 29.03125 L 0.484375 29.03125 Z M 0.484375 0 " fill-opacity="1" fill-rule="nonzero"/><path fill="rgb(36.079407%, 88.238525%, 90.19928%)" d="M 0.484375 0 L 29.515625 0 L 29.515625 29.03125 L 0.484375 29.03125 Z M 0.484375 0 " fill-opacity="1" fill-rule="nonzero"/></g><path fill="rgb(13.328552%, 13.328552%, 13.328552%)" d="M 6.507812 6.023438 L 22.476562 6.023438 L 22.476562 21.992188 L 6.507812 21.992188 Z M 6.507812 6.023438 " fill-opacity="1" fill-rule="nonzero"/><g clip-path="url(#clip-1)"><path fill="rgb(36.079407%, 88.238525%, 90.19928%)" d="M 7.398438 6.640625 C 7.304688 6.640625 7.226562 6.671875 7.164062 6.738281 C 7.097656 6.800781 7.066406 6.878906 7.066406 6.96875 L 7.066406 20.824219 C 7.066406 20.917969 7.097656 20.996094 7.164062 21.058594 C 7.226562 21.125 7.304688 21.15625 7.398438 21.15625 L 10.046875 21.15625 C 10.140625 21.15625 10.21875 21.125 10.28125 21.058594 C 10.347656 20.996094 10.378906 20.917969 10.378906 20.824219 L 10.378906 13.035156 L 13.386719 20.292969 C 13.441406 20.429688 13.542969 20.496094 13.691406 20.496094 L 15.679688 20.496094 C 15.828125 20.496094 15.929688 20.429688 15.984375 20.292969 L 18.992188 13.03125 L 18.992188 20.824219 C 18.992188 20.917969 19.027344 20.996094 19.089844 21.058594 C 19.15625 21.125 19.234375 21.15625 19.324219 21.15625 L 21.976562 21.15625 C 22.066406 21.15625 22.144531 21.125 22.210938 21.058594 C 22.273438 20.996094 22.308594 20.917969 22.308594 20.824219 L 22.308594 6.96875 C 22.308594 6.878906 22.273438 6.800781 22.210938 6.738281 C 22.144531 6.671875 22.066406 6.640625 21.976562 6.640625 L 18.992188 6.640625 C 18.84375 6.640625 18.742188 6.707031 18.6875 6.84375 L 14.6875 16.5 L 10.683594 6.84375 C 10.628906 6.707031 10.527344 6.640625 10.378906 6.640625 Z M 7.726562 7.300781 L 10.15625 7.300781 L 14.308594 17.324219 C 14.367188 17.457031 14.46875 17.527344 14.617188 17.527344 L 14.757812 17.527344 C 14.902344 17.527344 15.007812 17.457031 15.0625 17.324219 L 19.214844 7.300781 L 21.644531 7.300781 L 21.644531 20.496094 L 19.65625 20.496094 L 19.65625 11.917969 C 19.65625 11.828125 19.625 11.75 19.558594 11.683594 C 19.496094 11.621094 19.417969 11.589844 19.324219 11.589844 L 19.097656 11.589844 C 18.949219 11.589844 18.847656 11.65625 18.789062 11.792969 L 15.457031 19.835938 L 13.914062 19.835938 L 10.582031 11.792969 C 10.523438 11.65625 10.421875 11.589844 10.273438 11.589844 L 10.046875 11.589844 C 9.957031 11.589844 9.878906 11.621094 9.8125 11.683594 C 9.75 11.75 9.714844 11.828125 9.714844 11.917969 L 9.714844 20.496094 L 7.726562 20.496094 Z M 7.726562 7.300781 " fill-opacity="1" fill-rule="nonzero"/></g></svg>